<svg width="595" height="163" viewBox="0 0 595 163" fill="none" xmlns="http://www.w3.org/2000/svg">
<path d="M557.38 43.7631C545.366 31.7943 533.312 29.4817 518.106 26.6918C481.701 20.0124 445.235 10.8536 408.648 6.0266C337.152 -3.40617 262.605 3.33114 190.824 3.33114C155.922 3.33114 120.992 2.84315 86.0934 3.55576C67.789 3.92953 42.8318 1.04051 26.4553 14.113C10.0422 27.2147 1 37.521 1 61.7328C1 105.919 35.5403 118.936 67.3656 129.569C126.998 149.492 192.317 153.965 253.735 158.32C316.82 162.793 381.401 163.723 444.468 158.096C486.297 154.363 559.41 148.624 591.926 108.454C595.488 104.054 593.381 90.2512 593.381 84.195" stroke="white" stroke-width="2" stroke-linecap="round"/>
</svg>
