<svg width="592" height="127" viewBox="0 0 592 127" fill="none" xmlns="http://www.w3.org/2000/svg">
<path d="M511.174 11.381C490.388 11.381 469.627 6.49369 448.978 4.5276C408.815 0.703356 368.054 2.35456 327.764 2.35456C235.997 2.35456 144.532 -1.12884 55.5743 25.5893C34.5607 31.9007 -18.1589 51.6643 10.1816 79.9987C32.2576 102.07 67.2696 110.863 97.0381 115.854C151.164 124.929 204.852 124.212 259.549 124.212C297.677 124.212 336.952 126.823 374.912 122.54C417.023 117.788 460.06 112.025 501.811 104.571C522.287 100.915 542.024 94.2276 561.332 86.6014C571.853 82.4458 586.266 76.2585 589.086 63.701C590.176 58.8425 590.545 50.0655 588.751 45.3138C584.487 34.0158 559.093 29.9126 549.294 27.3444C527.489 21.6299 501.11 16.2394 479.574 23.4163" stroke="white" stroke-width="3" stroke-linecap="round"/>
</svg>
