<svg width="506" height="163" viewBox="0 0 506 163" fill="none" xmlns="http://www.w3.org/2000/svg">
<path d="M473.876 43.7631C463.666 31.7943 453.42 29.4817 440.497 26.6918C409.555 20.0124 378.562 10.8536 347.467 6.0266C286.701 -3.40617 223.342 3.33114 162.334 3.33114C132.671 3.33114 102.983 2.84315 73.3222 3.55576C57.765 3.92953 36.5535 1.04051 22.6349 14.113C8.68509 27.2147 1 37.521 1 61.7328C1 105.919 30.3563 118.936 57.4051 129.569C108.088 149.492 163.604 153.965 215.803 158.32C269.42 162.793 324.309 163.723 377.91 158.096C413.462 154.363 475.602 148.624 503.238 108.454C506.265 104.054 504.474 90.2512 504.474 84.195" stroke="white" stroke-width="2" stroke-linecap="round"/>
</svg>
