<svg width="724" height="299" viewBox="0 0 724 299" fill="none" xmlns="http://www.w3.org/2000/svg">
<path d="M293.076 15.3521C360.502 -2.05985 442.005 -0.304327 514.23 7.74047C550.471 5.26734 585.806 17.1502 618.051 29.9453C651.58 43.2505 682.549 64.1415 705.727 86.4663C722.95 103.055 724.52 121.36 720.069 140.301C713.876 166.652 712.032 193.324 689.805 214.747C666.044 237.651 635.365 249.691 601.034 262.686C559.284 278.489 519.471 290.229 471.579 294.699C412.87 300.178 356.744 297.816 297.239 291.188C231.227 283.835 161.301 279.652 97.3273 262.686C69.6038 255.334 36.7529 240.998 20.0314 222.262C4.79234 205.186 -0.993029 191.041 1.59786 171.841C4.74785 148.499 10.0941 122.241 19.9508 100.367C38.7719 58.5999 109.156 55.3807 160.238 44.4092C204.366 34.9314 249.882 26.5064 293.076 15.3521Z" stroke="white" stroke-width="2" stroke-linecap="round"/>
</svg>
