<svg width="251" height="55" viewBox="0 0 251 55" fill="none" xmlns="http://www.w3.org/2000/svg">
<path d="M234.623 15.0773C229.579 11.1373 224.517 10.376 218.132 9.45755C202.846 7.25875 187.534 4.24374 172.171 2.65472C142.15 -0.450478 110.847 1.76739 80.7068 1.76739C66.0515 1.76739 51.3844 1.60675 36.7306 1.84134C29.0446 1.96438 18.5651 1.01334 11.6886 5.3167C4.7968 9.62969 1 13.0225 1 20.9928C1 35.5385 15.5034 39.8236 28.8668 43.3238C53.9066 49.8824 81.3339 51.3551 107.123 52.7886C133.612 54.2611 160.73 54.567 187.211 52.7147C204.776 51.4861 235.476 49.5968 249.129 36.3731C250.625 34.9245 249.74 30.3808 249.74 28.3872" stroke="white" stroke-width="2" stroke-linecap="round"/>
</svg>
