<svg width="632" height="149" viewBox="0 0 632 149" fill="none" xmlns="http://www.w3.org/2000/svg">
<path d="M50 126.5C57.052 132.229 85.4855 134.9 94 136.218C137.698 142.979 168 147.5 222.5 147.5C283 147.5 316.704 136.218 361.103 136.218C412.699 136.218 464.764 138.246 516.313 135.77C538.573 134.701 560.012 128.047 580.269 119.083C596.515 111.895 625.29 99.5769 629.111 79.6623C634.496 51.5936 614.86 16.1479 585.345 10.7876C536.152 1.8531 484.448 3.17216 434.647 3.17216C380.729 3.17216 326.812 3.17216 272.894 3.17216C206.183 3.17216 135.185 -2.65701 69.6321 11.6835C51.5407 15.6412 12.1092 25.6393 5.11157 44.497C0.914028 55.8088 2.17883 67.7744 2.17883 79.7743" stroke="white" stroke-width="3" stroke-linecap="round"/>
</svg>
