<svg width="677" height="187" viewBox="0 0 677 187" fill="none" xmlns="http://www.w3.org/2000/svg">
<path d="M269.421 6.36068C331.994 -1.95549 408.454 2.06969 476.444 9.64278C510.325 9.42384 543.875 18.0351 574.561 27.098C606.47 36.5221 636.252 50.5371 658.784 65.156C675.526 76.0188 677.658 87.3765 674.17 98.9088C669.317 114.954 668.55 131.353 648.489 143.777C627.043 157.059 598.721 163.385 567.01 170.169C528.446 178.418 491.551 184.23 446.821 185.261C391.988 186.525 339.293 183.041 283.277 176.801C221.137 169.88 155.441 164.774 94.863 151.991C68.6112 146.452 37.3011 136.416 20.9512 124.245C6.05069 113.153 0.11729 104.211 1.85297 92.452C3.96319 78.1549 8.02686 62.1372 16.4766 48.9888C32.6111 23.8826 98.469 24.4353 145.955 19.5054C186.976 15.2467 229.336 11.6881 269.421 6.36068Z" stroke="white" stroke-width="2" stroke-linecap="round"/>
</svg>
