<svg width="374" height="88" viewBox="0 0 374 88" fill="none" xmlns="http://www.w3.org/2000/svg">
<path d="M336.66 15.9641C334.905 3.31347 264.694 6.79804 253.027 6.79804C226.861 6.79804 201.635 1.89705 175.893 1.29842C147.021 0.62698 117.896 1.29842 89.0118 1.29842C76.2584 1.29842 64.5462 1.89908 51.9988 3.02978C42.2803 3.90557 35.5563 8.74836 26.4288 11.2792C9.32736 16.021 1 23.7142 1 36.2312C1 48.4803 10.4669 53.9328 24.0272 60.7759C32.2561 64.9286 41.251 66.15 51.0099 67.2939C84.5667 71.2275 118.208 74.3236 151.877 77.6821C199.072 82.3898 253.696 91.4657 301.625 84.4039C322.475 81.3318 368.54 67.7791 372.26 49.6748C379.22 15.8073 335.796 6.00246 295.974 3.13163" stroke="white" stroke-width="2" stroke-linecap="round"/>
</svg>
