<svg width="121" height="172" viewBox="0 0 121 172" fill="none" xmlns="http://www.w3.org/2000/svg">
<path d="M98 2L107 12L119.5 8.5L111 20L119.5 24H107L98 34.5V24L86 20L96 14.5L98 2Z" stroke="white"/>
<path d="M38.9517 153.34L25.7085 155.71L22.0871 168.176L16.8021 154.888L8.91968 159.998L15.5144 149.379L11.3427 136.194L20.2625 141.734L29.9914 133.65L29.388 145.047L38.9517 153.34Z" stroke="white"/>
<path d="M95.2642 81.8107L95.5879 95.2604L107.356 100.739L93.4174 103.937L97.2669 112.507L87.7772 104.37L74.1103 106.484L80.9446 98.5125L74.4381 87.6651L85.6098 89.9986L95.2642 81.8107Z" stroke="white"/>
</svg>
