<svg width="319" height="686" viewBox="0 0 319 686" fill="none" xmlns="http://www.w3.org/2000/svg">
<path d="M153.191 3.37893L150.278 20.8576L133.273 27.6476L149.312 29.519L147.947 41.9872L157.786 32.2541L170.487 38.4003L164.665 27.0757L177.698 20.5777L163.345 18.7782L153.191 3.37893Z" stroke="white"/>
<path d="M297.116 378.28L288.164 393.572L269.855 393.853L284.174 401.32L278.453 412.482L291.115 406.896L300.791 417.166L299.389 404.51L313.882 403.085L301.113 396.287L297.116 378.28Z" stroke="white"/>
<path d="M30.6405 644.693L21.6886 659.985L3.37954 660.266L17.6982 667.733L11.9779 678.895L24.64 673.309L34.3153 683.579L32.9135 670.923L47.4067 669.498L34.6378 662.7L30.6405 644.693Z" stroke="white"/>
<path d="M90.4494 636.777L93.7634 654.184L80.1564 666.438L95.8531 662.645L98.8854 674.816L104.75 662.28L118.792 663.653L109.413 655.042L119.393 644.436L105.304 647.713L90.4494 636.777Z" stroke="white"/>
<path d="M133.486 44.7009L123.36 49.1945L113.965 42.6539L118.507 51.6702L111.529 55.2475L119.995 57.0344L121.156 65.7786L125.065 58.8436L132.941 63.4109L128.941 55.2995L133.486 44.7009Z" stroke="white"/>
<path d="M258.278 348.361L248.152 352.855L238.757 346.314L243.299 355.331L236.321 358.908L244.787 360.695L245.948 369.439L249.857 362.504L257.733 367.071L253.733 358.96L258.278 348.361Z" stroke="white"/>
<path d="M68.996 613.858L58.8704 618.352L49.4751 611.811L54.0169 620.828L47.039 624.405L55.5047 626.192L56.6663 634.936L60.5746 628.001L68.4507 632.568L64.4515 624.457L68.996 613.858Z" stroke="white"/>
<path d="M124.792 119.767L215.664 286.435" stroke="white"/>
<path d="M222.783 441.379L115.998 582.503" stroke="white"/>
</svg>
